# xmcd
#
# Track frame offsets: 
#        150
#        10217
#        21100
#        30397
#        40485
#        52860
#        63097
#        74515
#        86230
#        95092
#        104767
#        112817
#        126297
#        135662
#        153025
#        167087
#        178245
#        188162
#        202635
#        215510
#        234550
#        247422
#        258687
#        270807
#        294915
#        306532
#        322520
#
# Disc length: 4676 seconds
#
# Revision: 10
# Processed by: cddbd v1.5.2PL0 Copyright (c) Steve Scherf et al.
# Submitted via: ExactAudioCopyFreeDBPlugin 1.0
#
DISCID=7c12421b
DTITLE=Johnny Cash - Cash:  The Legend (Deluxe Edition) [picture book 
DTITLE=box set]
DYEAR=2010
DGENRE=Country
TTITLE0=Hey Porter
TTITLE1=Cry, Cry, Cry
TTITLE2=Luther Played the Boogie
TTITLE3=Get Rhythm
TTITLE4=Give My Love to Rose
TTITLE5=I Was There When it Happened
TTITLE6=Big River
TTITLE7=I Still Miss Someone
TTITLE8=Pickin' Time
TTITLE9=The Man on the Hill
TTITLE10=Five Feet High and Rising
TTITLE11=Tennessee Flat-Top Box
TTITLE12=I Got Stripes
TTITLE13=Troublesome Waters
TTITLE14=The Long Black Veil
TTITLE15=Dark as a Dungeon
TTITLE16=The Wall
TTITLE17=25 Minutes to Go
TTITLE18=Cocaine Blues
TTITLE19=Doin' My Time
TTITLE20=I Will Rock and Roll with You
TTITLE21=Without Love
TTITLE22=The Big Light
TTITLE23=Highway Patrolman
TTITLE24=I'm Never Gonna Roam Again
TTITLE25=When I'm Gray
TTITLE26=Forever Young
EXTD=YEAR: 2010
EXTT0=
EXTT1=
EXTT2=
EXTT3=
EXTT4=
EXTT5=
EXTT6=
EXTT7=
EXTT8=
EXTT9=
EXTT10=
EXTT11=
EXTT12=
EXTT13=
EXTT14=
EXTT15=
EXTT16=
EXTT17=
EXTT18=
EXTT19=
EXTT20=
EXTT21=
EXTT22=
EXTT23=
EXTT24=
EXTT25=
EXTT26=
PLAYORDER=
